<svg xmlns="http://www.w3.org/2000/svg"  viewBox="0 0 50 50" width="50px" height="50px"><path d="M 25 8 C 18.402344 8 15.992188 8.863281 15.53125 9.0625 C 13.980469 9.589844 11.683594 10.378906 10.6875 12.3125 C 10.011719 13.628906 5.566406 25.46875 5.0625 26.8125 L 5 27 L 5 39 C 5 40.652344 6.347656 42 8 42 L 12 42 C 13.652344 42 15 40.652344 15 39 L 15 38 L 35 38 L 35 39 C 35 40.652344 36.347656 42 38 42 L 42 42 C 43.652344 42 45 40.652344 45 39 L 45 27 L 44.9375 26.8125 C 44.832031 26.53125 43.410156 22.816406 42 19.1875 C 41.984375 19.15625 41.980469 19.125 41.96875 19.09375 C 40.796875 16.078125 39.648438 13.152344 39.28125 12.3125 C 38.441406 10.410156 36.128906 9.546875 34.4375 9.0625 C 33.917969 8.847656 31.480469 8 25 8 Z M 25 10 C 31.550781 10 33.648438 10.902344 33.65625 10.90625 L 33.8125 10.96875 C 34.566406 11.183594 36.871094 11.835938 37.4375 13.125 C 37.773438 13.886719 38.808594 16.546875 39.90625 19.375 L 40 19.5625 C 40.015625 19.601563 40.011719 19.640625 40.03125 19.6875 C 40.058594 19.757813 40.097656 19.835938 40.125 19.90625 C 40.371094 20.550781 40.640625 21.511719 40.25 22.09375 C 39.847656 22.6875 38.703125 23 37 23 L 13 23 C 11.296875 23 10.085938 22.597656 9.6875 22 C 9.21875 21.304688 9.726563 20.0625 9.96875 19.46875 L 10.0625 19.28125 C 11.222656 16.253906 12.21875 13.734375 12.46875 13.25 C 13.105469 12.015625 14.972656 11.359375 16.21875 10.9375 L 16.3125 10.90625 C 16.332031 10.898438 18.449219 10 25 10 Z M 5.09375 19 C 2.070313 19 1 20.859375 1 22.59375 C 1 23.4375 1.378906 24.796875 3.625 24.96875 C 4.253906 23.300781 5.0625 21.128906 5.875 19 Z M 44.0625 19 C 44.96875 21.339844 45.863281 23.640625 46.375 24.96875 C 48.628906 24.800781 49 23.441406 49 22.59375 C 49 20.859375 47.929688 19 44.90625 19 Z M 11 27 L 15 27 C 16.65625 27 18 28.34375 18 30 C 18 31.65625 16.65625 33 15 33 C 13.324219 33 12.828125 32.574219 11.09375 31.59375 C 9.933594 30.9375 9 30.308594 9 29 C 9 27.894531 9.894531 27 11 27 Z M 35 27 L 39 27 C 40.105469 27 41 27.894531 41 29 C 41 30.308594 40.066406 30.9375 38.90625 31.59375 C 37.175781 32.574219 36.675781 33 35 33 C 33.34375 33 32 31.65625 32 30 C 32 28.34375 33.34375 27 35 27 Z"/></svg>