<svg width="34" height="30" viewBox="0 0 34 30" fill="none" xmlns="http://www.w3.org/2000/svg">
<g id="Group 37618">
<path id="Vector" d="M4.43164 12.9073V29.2723C4.43164 29.6741 4.76262 29.9998 5.17077 29.9998H28.8292C29.2373 29.9998 29.5683 29.6741 29.5683 29.2723V12.9073L17 4.03809L4.43164 12.9073Z" fill="#FD9727"/>
<path id="Vector_2" d="M23.6553 8.73462V26.3622C23.6553 26.764 23.3243 27.0898 22.9162 27.0898H4.43164V29.2724C4.43164 29.6741 4.76262 29.9999 5.17077 29.9999H28.8292C29.2373 29.9999 29.5683 29.6741 29.5683 29.2724V12.9073L23.6553 8.73462Z" fill="#FF7A00"/>
<path id="Vector_3" d="M26.6118 10.821V27.8174C26.6118 28.2192 26.2808 28.545 25.8727 28.545H4.43164V29.2725C4.43164 29.6742 4.76262 30 5.17077 30H28.8292C29.2373 30 29.5683 29.6742 29.5683 29.2725V12.9073L26.6118 10.821Z" fill="#DE7E15"/>
<path id="Vector_4" d="M22.2206 13.9963C22.2206 13.7789 22.0415 13.6025 21.8205 13.6025H12.1791C11.9582 13.6025 11.7791 13.7787 11.7791 13.9963V29.9999H22.2206V13.9963Z" fill="#3C3126"/>
<path id="Vector_5" d="M32.1589 14.3194C31.7879 14.3194 31.4134 14.2093 31.0887 13.9802L16.9998 4.03812L2.91104 13.9802C2.08559 14.5626 0.936537 14.3763 0.344495 13.5637C-0.247251 12.751 -0.0577385 11.6201 0.76772 11.0374L15.9283 0.339065C16.5689 -0.113022 17.431 -0.113022 18.0717 0.339065L33.2323 11.0374C34.0577 11.6201 34.2472 12.751 33.6555 13.5637C33.296 14.0568 32.7316 14.3194 32.1589 14.3194Z" fill="#FD9727"/>
<path id="Vector_6" d="M33.6551 12.5794C33.2958 13.0725 32.7314 13.335 32.1586 13.335C31.7876 13.335 31.4131 13.2249 31.0884 12.9958L16.9996 3.05371L2.91089 12.9958C2.08543 13.5781 0.936385 13.3919 0.344344 12.5792C0.216327 12.4035 0.12704 12.2124 0.0707187 12.0156C-0.0762199 12.5274 0.00508418 13.0977 0.344344 13.5636C0.936385 14.3761 2.08543 14.5625 2.91089 13.9802L16.9997 4.03806L31.0885 13.9802C31.4131 14.2091 31.7877 14.3193 32.1588 14.3193C32.7314 14.3193 33.2958 14.0569 33.6552 13.5637C33.9945 13.0978 34.0758 12.5276 33.9288 12.0157C33.8724 12.2124 33.7832 12.4035 33.6551 12.5794Z" fill="#FC7900"/>
<path id="Vector_7" d="M5.3186 21.6024C5.1554 21.6024 5.02295 21.4721 5.02295 21.3114V14.6182C5.02295 14.4575 5.1554 14.3272 5.3186 14.3272C5.4818 14.3272 5.61425 14.4575 5.61425 14.6182V21.3114C5.61425 21.4721 5.4818 21.6024 5.3186 21.6024ZM5.3186 13.7451C5.1554 13.7451 5.02295 13.6148 5.02295 13.4541V13.3555C5.02295 13.1948 5.1554 13.0645 5.3186 13.0645C5.4818 13.0645 5.61425 13.1948 5.61425 13.3555V13.4541C5.61425 13.6148 5.4818 13.7451 5.3186 13.7451Z" fill="white"/>
</g>
</svg>
