<svg width="20" height="20" viewBox="0 0 20 20" xmlns="http://www.w3.org/2000/svg">
<path id="Vector" d="M19.618 17.7871L15.804 13.9726C16.8787 12.5184 17.5319 10.7271 17.5319 8.76712C17.5319 3.91992 13.5914 0 8.76595 0C3.91939 0 0 3.94099 0 8.76712C0 13.6143 3.94046 17.5342 8.76595 17.5342C10.7046 17.5342 12.5168 16.8809 13.9707 15.8061L17.7848 19.6207C18.0376 19.8736 18.3748 20 18.7119 20C19.0491 20 19.3862 19.8736 19.6391 19.6207C20.1238 19.1359 20.1238 18.2929 19.618 17.7871ZM2.59186 8.76712C2.59186 5.37408 5.35229 2.61328 8.74488 2.61328C12.1375 2.61328 14.8979 5.37408 14.8979 8.76712C14.8979 12.1602 12.1375 14.921 8.74488 14.921C5.35229 14.942 2.59186 12.1812 2.59186 8.76712Z" />
</svg>
